<svg xmlns="http://www.w3.org/2000/svg" style="display: none;">
  <symbol id="arrow" viewBox="0 0 24 24">
    <svg  xmlns="http://www.w3.org/2000/svg"  width="24"  height="24"  viewBox="0 0 24 24"  fill="none"  stroke="currentColor"  stroke-width="2"  stroke-linecap="round"  stroke-linejoin="round"  class="icon icon-tabler icons-tabler-outline icon-tabler-arrow-down"><path stroke="none" d="M0 0h24v24H0z" fill="none"/><path d="M12 5l0 14" /><path d="M18 13l-6 6" /><path d="M6 13l6 6" /></svg>
  </symbol>

  <symbol id="activity" viewBox="0 0 26 26">
    <path fill="currentColor" fill-rule="evenodd" 
      d="M10.227 14.88H4.801a.8.8 0 0 1-.646-1.272L13.481.83c.456-.625 1.446-.303 1.446.472v9.215a.8.8 0 0 0 .8.8h5.426a.8.8 0 0 1 .646 1.272l-9.326 12.778c-.456.625-1.446.302-1.446-.472V15.68a.8.8 0 0 0-.8-.8Z">
    </path>
  </symbol>

  <symbol id="stake" viewBox="0 0 16 16">
    <path fill="currentColor" fill-rule="evenodd"
      d="M.377 7.836c0 1.243 1 2.243 3 4.243l.444.444c2 2 3 3 4.242 3 1.243 0 2.243-1 4.243-3l.444-.444c2-2 3-3 3-4.243 0-1.242-1-2.242-3-4.242l-.444-.444c-2-2-3-3-4.243-3-1.242 0-2.242 1-4.242 3l-.444.444c-2 2-3 3-3 4.242Zm11.367-.84a1 1 0 0 0-1.504-1.319L9.06 7.024l-.845-.88a1 1 0 0 0-1.429-.015l-2 2A1 1 0 1 0 6.2 9.543l1.279-1.278.893.93a1 1 0 0 0 1.473-.033l1.9-2.166Z">
    </path>
  </symbol>

  <symbol id="browser" viewBox="0 0 16 16">
    <path fill="currentColor" fill-rule="evenodd"
      d="M1.491 5.837c-.217 0-.426.035-.622.099-.475.155-.713.233-.796.17-.083-.061-.078-.26-.067-.656.041-1.622.207-2.578.864-3.234.879-.879 2.293-.879 5.121-.879h1c2.829 0 4.243 0 5.122.879.58.58.777 1.394.844 2.696.011.214.017.32.076.376.059.055.178.053.418.05l.041-.001a2.5 2.5 0 1 1-.041 5c-.24-.004-.36-.006-.418.049-.06.055-.065.162-.076.377-.067 1.3-.264 2.115-.844 2.695-.879.879-2.293.879-5.122.879h-1c-2.828 0-4.242 0-5.12-.879-.658-.656-.824-1.612-.865-3.234-.01-.397-.016-.595.067-.657.083-.062.321.016.796.171a2 2 0 1 0 .622-3.901Z">
    </path>
  </symbol>

  <symbol id="swap" viewBox="0 0 16 16">
    <path fill="currentColor" fill-rule="evenodd"
      d="M10.075 4.143c-.138-.522.287-1.16 1.136-2.435C11.913.656 12.264.13 12.74.027a1.2 1.2 0 0 1 .506 0c.475.102.826.629 1.528 1.681.85 1.275 1.275 1.913 1.137 2.435a1.2 1.2 0 0 1-.262.49c-.243.274-.675.362-1.406.39v6.314a3.75 3.75 0 1 1-7.5 0v-6a1.25 1.25 0 1 0-2.5 0v5.313c.731.028 1.163.116 1.406.391a1.2 1.2 0 0 1 .262.49c.138.522-.287 1.16-1.137 2.434-.702 1.052-1.053 1.579-1.528 1.681-.167.036-.34.036-.506 0-.476-.102-.827-.629-1.529-1.681C.361 12.69-.063 12.053.075 11.53a1.2 1.2 0 0 1 .261-.489c.244-.275.675-.363 1.407-.391V5.337a3.75 3.75 0 1 1 7.5 0v6a1.25 1.25 0 0 0 2.5 0V5.023c-.732-.028-1.163-.116-1.407-.39a1.2 1.2 0 0 1-.261-.49Z">
    </path>
  </symbol>

  <symbol id="explore" viewBox="0 0 16 16">
     <path fill="currentColor" fill-rule="evenodd"
        d="M8 16A8 8 0 1 0 8 0a8 8 0 0 0 0 16Zm-3.934-4.524c-.454-.588-.25-1.533.155-3.423.306-1.423.459-2.135.903-2.65.086-.1.179-.193.278-.278.516-.445 1.228-.598 2.65-.904 1.89-.406 2.836-.609 3.424-.155a1.6 1.6 0 0 1 .288.289c.454.588.251 1.533-.155 3.423-.305 1.423-.458 2.135-.903 2.65-.086.1-.178.192-.278.278-.516.445-1.227.598-2.65.904-1.89.405-2.835.608-3.423.155a1.597 1.597 0 0 1-.29-.29Zm4.792-4.503a1.333 1.333 0 1 1-1.886 1.885 1.333 1.333 0 0 1 1.886-1.885Z"
        clip-rule="evenodd">
      </path>
  </symbol>

  <symbol id="token" viewBox="0 0 16 16">
    <path fill="currentColor" fill-rule="evenodd"
      d="M13.594 5.048c-.78-1-2.602-3.711-3.852-4.796-1.25-1.085-2.397 4.532-3.75 6.085C4.639 7.89 3.155 4.113 2.39 5.049A6.53 6.53 0 0 0 .992 9.094c0 3.718 3.14 6.743 7 6.743s7-3.026 7-6.746a6.519 6.519 0 0 0-1.398-4.043Z">
    </path>
  </symbol>
</svg>  